<?xml version="1.0" standalone="no"?>
<!DOCTYPE svg PUBLIC "-//W3C//DTD SVG 20010904//EN"
 "http://www.w3.org/TR/2001/REC-SVG-20010904/DTD/svg10.dtd">
<svg version="1.0" xmlns="http://www.w3.org/2000/svg"
 width="1584.000000pt" height="1584.000000pt" viewBox="0 0 1584.000000 1584.000000"
 preserveAspectRatio="xMidYMid meet">

<g transform="translate(0.000000,1584.000000) scale(0.100000,-0.100000)"
fill="#000000" stroke="none">
<path d="M0 7920 l0 -7920 7920 0 7920 0 0 7920 0 7920 -7920 0 -7920 0 0
-7920z m6764 6425 c11 -8 30 -15 43 -15 13 0 23 -4 23 -10 0 -5 10 -10 23 -10
13 0 33 -9 45 -20 12 -11 25 -20 30 -20 13 0 46 -38 48 -55 3 -21 -47 -19
-148 5 -87 21 -218 26 -278 11 -106 -26 -151 -33 -184 -27 -32 6 -35 9 -26 26
6 11 16 20 22 20 6 0 18 8 27 18 22 24 57 42 80 42 11 0 23 5 26 10 3 6 17 10
29 10 13 0 29 7 36 15 17 21 177 21 204 0z m4488 6 c2 -5 62 -14 133 -20 174
-16 275 -30 445 -62 30 -5 70 -10 88 -11 17 -1 32 -5 32 -10 0 -4 15 -8 34 -8
19 0 38 -4 41 -10 3 -5 21 -10 40 -10 19 0 37 -4 40 -10 3 -5 16 -10 27 -10
23 0 81 -17 110 -31 10 -5 25 -9 33 -9 24 0 95 -24 95 -32 0 -5 14 -8 30 -8
17 0 30 -4 30 -10 0 -5 11 -10 24 -10 14 0 28 -4 31 -10 3 -5 15 -10 26 -10
10 0 19 -4 19 -10 0 -5 11 -10 25 -10 14 0 25 -4 25 -10 0 -5 11 -10 24 -10
14 0 28 -4 31 -10 3 -5 15 -10 26 -10 10 0 19 -4 19 -10 0 -5 9 -10 20 -10 11
0 20 -4 20 -10 0 -5 9 -10 20 -10 11 0 20 -4 20 -10 0 -5 8 -10 18 -10 17 0
82 -27 82 -34 0 -3 -28 -1 -53 3 -5 0 -5 5 -2 11 3 5 -4 10 -17 9 -13 0 -122
33 -243 74 -319 109 -574 172 -870 216 -276 41 -361 46 -795 46 -384 0 -432
-2 -500 -19 -41 -10 -96 -21 -122 -23 -45 -5 -49 -3 -97 42 -30 28 -48 52 -44
61 4 12 91 14 568 14 320 0 565 -4 567 -9z m-1649 -417 c19 -25 19 -26 -8 -64
-15 -21 -34 -41 -42 -44 -21 -8 -61 19 -75 50 -6 13 -15 24 -20 24 -13 0 -9
14 10 38 13 17 27 22 67 22 42 -1 53 -5 68 -26z m-3042 -334 c58 -26 150 -26
206 0 24 10 45 15 47 11 10 -16 -38 -93 -73 -117 -69 -46 -155 -24 -208 55
-20 29 -31 71 -19 71 2 0 23 -9 47 -20z m5918 -115 c75 -28 90 -40 73 -57 -18
-18 -448 -20 -463 -2 -15 18 51 55 122 69 12 2 24 7 28 10 15 16 179 1 240
-20z m-4859 -145 c0 -5 9 -10 20 -10 11 0 20 -4 20 -10 0 -5 9 -10 20 -10 11
0 20 -3 20 -8 0 -4 15 -14 33 -21 17 -8 39 -23 48 -33 9 -10 24 -18 33 -18 9
0 16 -4 16 -10 0 -5 9 -10 20 -10 11 0 20 -4 20 -10 0 -5 6 -10 13 -10 7 0 23
-9 35 -20 12 -11 28 -20 37 -20 8 0 15 -4 15 -10 0 -5 8 -10 18 -10 10 0 24
-9 32 -20 8 -11 22 -20 32 -20 10 0 18 -4 18 -10 0 -5 9 -10 20 -10 11 0 20
-4 20 -10 0 -5 8 -10 18 -10 10 0 24 -9 32 -20 8 -11 22 -20 32 -20 10 0 18
-4 18 -10 0 -5 9 -10 20 -10 11 0 20 -4 20 -10 0 -5 9 -10 20 -10 11 0 20 -4
20 -10 0 -5 6 -10 13 -10 7 0 23 -9 35 -20 12 -11 28 -20 37 -20 8 0 15 -4 15
-8 0 -5 16 -15 35 -22 20 -8 41 -20 47 -27 6 -7 39 -27 74 -43 35 -17 67 -37
71 -44 4 -8 17 -16 28 -18 18 -4 18 -6 -6 -17 -23 -11 -32 -10 -70 9 -24 13
-64 37 -89 54 -25 17 -81 50 -125 74 -44 25 -97 54 -117 65 -21 11 -38 25 -38
29 0 5 -4 7 -8 4 -4 -2 -41 16 -82 40 -41 25 -108 62 -149 82 -68 34 -83 37
-185 42 -61 3 -120 11 -131 17 -24 13 -71 63 -109 115 -30 40 -28 46 19 75 25
15 65 17 65 3z m4738 -627 c-16 -2 -40 -2 -55 0 -16 2 -3 4 27 4 30 0 43 -2
28 -4z m1065 -170 c26 -11 53 -25 60 -33 8 -8 8 -11 0 -6 -6 3 -13 1 -15 -5
-3 -8 -61 -12 -194 -13 -104 -1 -195 -5 -201 -9 -6 -4 -15 -2 -18 4 -4 5 -13
8 -19 6 -7 -3 -13 1 -13 9 0 13 102 57 157 68 52 10 195 -3 243 -21z m-2182
-55 l404 -3 -49 -23 c-53 -26 -199 -41 -406 -42 -210 0 -361 36 -391 93 l-12
22 25 -22 c24 -23 25 -23 429 -25z m2829 -329 c-22 -19 -35 -21 -108 -17 -60
3 -87 9 -100 21 -15 16 -8 17 108 17 l125 -1 -25 -20z m-2362 -309 c43 -19 52
-39 29 -58 -24 -20 -72 -22 -187 -6 -165 23 -461 15 -583 -15 -52 -13 -101
-20 -117 -16 -28 6 -110 84 -110 105 0 7 154 10 463 10 435 0 465 -2 505 -20z
m-4579 -85 c132 -101 267 -211 279 -227 26 -35 42 -22 42 35 l0 52 19 -24 c44
-57 8 -98 -77 -87 -84 11 -164 68 -243 174 -24 31 -50 63 -58 70 -8 6 -11 12
-7 12 4 0 -6 11 -21 25 -44 39 3 18 66 -30z m6184 32 c23 6 43 10 44 9 2 -2
-2 -16 -7 -33 -13 -37 -67 -69 -102 -60 -31 8 -78 54 -78 77 0 15 6 15 50 6
36 -7 63 -7 93 1z m-1350 -186 l43 -40 70 25 c123 46 280 43 393 -7 39 -17 43
-21 30 -34 -19 -18 -54 -21 -179 -12 -74 5 -132 3 -194 -6 -116 -18 -153 -14
-188 21 -28 27 -46 92 -27 92 5 0 29 -18 52 -39z m-3164 -198 c-8 -9 -33 -25
-57 -35 -54 -24 -117 -17 -158 19 -29 25 -29 26 -4 18 55 -16 145 -17 180 -2
46 20 55 20 39 0z m3511 -563 c-8 -5 -33 -10 -55 -10 -22 0 -47 5 -55 10 -10
7 6 10 55 10 49 0 65 -3 55 -10z m2060 -149 c187 -1 203 -2 182 -16 -24 -18
-151 -35 -257 -35 -38 0 -126 -9 -194 -21 l-123 -20 -34 23 c-19 13 -37 31
-40 41 -3 9 -11 18 -17 19 -23 3 149 13 213 12 36 -1 157 -2 270 -3z m-5528
-101 c94 -35 169 -91 130 -96 -4 0 -15 -4 -25 -9 -19 -8 -57 -4 -167 15 -75
14 -165 8 -279 -16 -69 -15 -85 -15 -106 -4 -14 7 -25 17 -25 20 0 4 24 24 53
43 48 33 120 60 192 71 57 8 173 -4 227 -24z m-5527 -269 c72 -15 74 -16 200
-77 89 -43 112 -60 206 -154 59 -59 110 -117 114 -131 4 -13 18 -37 31 -54 70
-92 130 -363 110 -496 -6 -41 -9 -44 -37 -45 -47 -2 -97 -60 -187 -217 -114
-199 -122 -228 -78 -272 17 -17 20 -27 13 -34 -8 -8 -1 -33 25 -89 20 -42 50
-106 66 -142 16 -36 48 -103 70 -150 22 -47 51 -110 65 -140 54 -120 151 -324
167 -350 13 -22 66 -141 75 -170 4 -14 14 -34 21 -45 8 -11 14 -25 14 -33 0
-7 9 -22 20 -34 11 -12 20 -30 20 -40 0 -10 4 -18 9 -18 5 0 12 -11 15 -24 3
-13 27 -69 52 -123 25 -54 53 -114 61 -133 16 -35 49 -107 128 -275 23 -49 55
-118 70 -152 27 -60 30 -63 64 -63 20 0 63 7 96 15 127 30 325 15 462 -35 65
-24 189 -85 208 -102 8 -7 40 -35 72 -63 58 -49 119 -120 157 -180 22 -35 89
-166 92 -180 1 -5 12 -46 23 -89 22 -82 30 -299 13 -310 -5 -3 -21 -7 -37 -10
-43 -8 -79 -49 -163 -185 -45 -73 -104 -152 -142 -191 -124 -126 -286 -198
-466 -207 -213 -12 -391 50 -547 189 -61 54 -80 79 -190 248 -67 103 -94 129
-137 135 -17 2 -35 7 -39 10 -14 14 -5 232 14 310 20 88 67 207 96 244 11 13
19 28 19 33 0 6 14 27 30 48 35 44 35 48 15 86 -19 36 -19 64 -2 64 8 0 22 16
33 35 18 34 18 38 2 100 -28 105 -121 288 -176 344 -68 71 -94 76 -303 56
-226 -22 -1106 -16 -1259 9 -250 40 -287 16 -435 -288 -147 -303 -157 -340
-105 -399 32 -37 37 -56 19 -74 -8 -8 -7 -24 7 -60 9 -26 21 -53 25 -58 24
-32 59 -215 59 -305 0 -120 -5 -136 -39 -143 -46 -10 -85 -51 -157 -168 -38
-61 -93 -138 -123 -170 -221 -245 -583 -308 -881 -154 -100 52 -228 179 -297
295 -28 47 -65 104 -81 126 -29 40 -79 74 -108 74 -22 0 -27 45 -21 174 6 134
30 223 93 350 96 191 296 359 493 415 127 36 162 41 267 41 108 0 190 -15 318
-60 33 -11 67 -20 77 -20 14 0 40 44 104 173 47 94 89 179 94 187 4 8 15 31
24 50 9 19 46 98 83 175 36 77 84 178 106 225 22 47 64 135 93 195 65 135 115
245 141 307 10 27 22 48 26 48 3 0 9 14 13 30 4 17 11 30 16 30 5 0 9 6 9 14
0 7 36 85 79 172 43 88 89 182 101 209 12 28 36 79 52 113 16 35 28 72 25 83
-3 10 -2 19 3 19 4 0 13 14 20 31 19 44 3 84 -91 240 -136 226 -152 243 -226
248 -29 2 -25 235 7 364 15 61 79 191 127 259 95 134 285 279 397 304 17 4 37
10 46 15 69 36 326 48 455 20z m4055 -26 c120 -20 235 -64 318 -122 100 -69
231 -216 283 -317 57 -110 99 -281 99 -398 l0 -88 -27 -1 c-16 -1 -31 -1 -34
-1 -15 2 -99 -99 -139 -168 -104 -179 -176 -257 -327 -352 -187 -116 -209
-145 -201 -251 6 -72 34 -133 78 -170 l30 -26 0 -743 c0 -409 4 -748 8 -753 4
-6 49 -28 100 -49 132 -55 273 -165 339 -264 20 -32 43 -63 50 -70 7 -7 13
-22 13 -33 0 -10 4 -19 8 -19 11 0 51 -97 74 -180 11 -36 22 -116 25 -177 6
-108 5 -113 -14 -113 -60 0 -115 -56 -206 -210 -62 -106 -115 -173 -176 -225
-217 -181 -509 -215 -770 -88 -127 61 -229 162 -320 316 -90 154 -132 197
-190 197 -14 0 -23 9 -27 25 -8 31 1 152 16 225 13 63 69 218 81 226 5 3 9 11
9 19 0 25 86 138 157 206 85 82 189 145 318 192 l40 15 3 759 2 760 26 14 c34
18 74 99 81 164 11 105 -19 143 -192 245 -125 74 -240 192 -327 335 -87 142
-134 187 -198 189 -34 2 -15 261 26 353 8 17 14 37 14 43 0 7 19 49 43 94 34
66 64 103 165 204 68 67 129 122 137 122 7 0 15 4 17 8 8 21 165 77 288 102
105 23 190 24 300 5z m5511 -221 c100 -7 101 -7 78 -25 -34 -26 -80 -30 -428
-39 -236 -6 -338 -12 -402 -26 -100 -20 -125 -16 -174 32 -63 61 -59 62 412
63 227 1 458 -1 514 -5z m-4288 -219 c44 -18 111 -19 172 -3 24 7 48 9 52 4
13 -12 -30 -79 -66 -103 -66 -45 -158 -16 -195 60 -28 60 -22 67 37 42z m2450
-804 c16 -6 17 -9 5 -18 -29 -25 -78 -35 -208 -44 -74 -5 -182 -16 -240 -24
-108 -16 -142 -14 -166 6 -18 15 -11 25 44 60 l46 29 250 -1 c138 0 259 -4
269 -8z m625 2 c18 -4 20 -8 10 -14 -18 -12 -85 -11 -93 0 -9 16 44 25 83 14z
m1550 1 c33 -9 27 -20 -20 -34 -59 -18 -832 -26 -897 -10 -59 15 -80 31 -54
41 22 9 938 11 971 3z m-4151 -456 c-37 -82 -126 -156 -196 -164 -19 -2 2 23
95 117 65 65 120 115 122 109 2 -5 -7 -33 -21 -62z m-248 -125 c0 -34 -1 -36
-11 -16 -6 12 -8 29 -5 37 11 27 17 18 16 -21z m1552 -1123 c26 -14 24 -33 -7
-69 -31 -37 -65 -40 -94 -8 -36 37 -42 54 -24 71 18 18 95 22 125 6z m4639
-35 c0 -11 -61 -34 -120 -45 -36 -6 -98 -20 -139 -31 -111 -28 -123 -27 -183
31 l-52 50 247 0 c136 0 247 -2 247 -5z m-5710 -1685 c15 0 47 7 70 15 51 18
59 14 29 -14 -41 -38 -151 -40 -191 -4 -29 26 -21 33 23 18 23 -8 54 -15 69
-15z m2570 -393 c221 -120 870 -376 995 -392 11 -2 92 -21 180 -43 306 -77
548 -105 660 -78 96 23 88 4 -15 -35 -68 -26 -205 -28 -330 -4 -47 9 -112 20
-144 26 -33 5 -63 12 -68 15 -5 3 -21 8 -36 11 -39 7 -57 11 -57 13 0 0 -40
12 -90 26 -113 31 -95 26 -199 58 -103 32 -300 104 -366 133 -25 12 -72 31
-105 44 -33 12 -111 46 -173 76 -62 29 -115 53 -118 53 -2 0 -21 11 -42 23
-20 13 -64 39 -97 56 -111 61 -185 106 -185 114 0 4 24 -6 53 -21 28 -16 90
-49 137 -75z m-9990 -683 c162 -27 426 -127 510 -193 l24 -19 -29 -61 c-16
-34 -36 -68 -45 -76 -8 -7 -51 -24 -95 -37 -102 -29 -263 -31 -375 -4 -47 11
-134 19 -235 23 -138 4 -174 2 -263 -16 -197 -41 -324 -105 -453 -228 -124
-119 -206 -264 -231 -414 -20 -113 14 -208 85 -246 18 -9 37 -16 43 -15 7 1
13 -29 17 -80 12 -157 66 -303 158 -421 225 -292 702 -362 1098 -162 39 19 73
35 76 35 8 0 225 -438 225 -454 0 -12 -7 -12 -47 0 -70 21 -153 17 -308 -15
-211 -44 -320 -55 -479 -48 -320 13 -575 117 -785 321 -131 127 -216 259 -326
506 -73 163 -165 280 -221 280 -15 0 -16 11 -11 123 22 476 332 907 798 1109
108 47 287 94 403 108 107 12 347 4 466 -16z m9414 -27 c115 -53 196 -173 196
-290 0 -85 -5 -93 -51 -89 -22 2 -82 -3 -134 -13 -106 -19 -184 -17 -356 10
l-117 18 -6 38 c-7 44 7 127 30 170 22 43 89 114 132 141 87 54 208 60 306 15z
m-5914 -1027 l0 -1030 465 0 465 0 0 -139 0 -139 -87 -20 c-171 -39 -216 -43
-492 -45 -255 -1 -290 1 -456 27 -99 15 -218 37 -265 48 -47 12 -113 22 -147
22 l-63 1 0 1153 0 1152 290 0 290 0 0 -1030z m-1570 84 c212 -44 409 -174
524 -347 99 -149 136 -275 136 -464 0 -103 -2 -121 -15 -117 -26 10 -84 -17
-126 -59 -22 -23 -59 -78 -81 -122 -22 -43 -55 -100 -74 -126 -127 -174 -345
-279 -576 -279 -217 0 -397 69 -525 201 -71 74 -84 92 -149 205 -81 141 -121
180 -206 198 -28 6 -28 6 -28 95 0 110 19 214 57 313 102 262 363 464 655 507
40 6 84 13 98 15 45 8 233 -5 310 -20z m3890 0 c346 -62 574 -308 615 -663 8
-67 5 -69 -35 -35 -29 24 -87 32 -162 24 -40 -5 -105 -11 -144 -13 -75 -6 -90
-12 -228 -91 -118 -67 -179 -78 -419 -74 l-198 3 -30 -33 c-16 -18 -29 -41
-29 -51 0 -28 36 -68 73 -80 21 -7 37 -22 46 -43 19 -42 89 -112 140 -137 58
-30 155 -51 236 -51 138 1 307 47 398 108 23 15 47 31 54 35 7 4 42 -42 96
-131 120 -194 115 -177 51 -180 -30 -1 -123 -20 -207 -41 -195 -51 -305 -65
-437 -58 -167 9 -339 69 -452 159 -44 34 -108 129 -168 248 -102 203 -180 290
-261 290 l-32 0 6 88 c24 332 220 593 525 696 160 55 363 65 562 30z m1810 0
c107 -28 199 -81 283 -165 l77 -78 0 109 0 110 297 0 296 0 -6 -167 c-4 -91
-7 -460 -7 -820 l0 -653 -23 0 c-37 0 -134 -106 -212 -233 -108 -177 -191
-259 -330 -326 -148 -71 -277 -101 -440 -101 -127 0 -224 18 -430 80 -200 60
-249 70 -335 70 -38 0 -71 4 -75 10 -5 8 268 307 318 349 14 11 24 6 79 -43
117 -104 258 -155 430 -156 158 0 268 40 347 125 50 54 75 106 91 190 11 55
15 62 54 86 52 32 86 96 86 160 -1 52 -16 75 -58 90 -36 12 -79 3 -190 -45
-291 -125 -584 -94 -772 81 -76 70 -111 123 -191 288 -78 161 -132 222 -200
227 l-44 3 -3 43 c-4 56 23 199 54 281 81 215 265 400 465 466 135 45 306 52
439 19z m3380 0 c151 -31 304 -111 415 -219 166 -160 245 -349 245 -585 l0
-116 -34 4 c-65 8 -114 -34 -172 -143 -103 -197 -202 -307 -339 -375 -104 -52
-176 -70 -305 -77 -164 -9 -331 34 -462 118 -67 43 -170 157 -214 237 -92 167
-153 229 -214 220 -40 -6 -44 11 -38 166 8 186 62 331 175 471 129 160 330
274 535 304 40 6 84 13 98 15 44 8 233 -4 310 -20z m2279 -5 c247 -63 419
-232 467 -458 10 -50 14 -154 14 -421 l0 -355 -60 -30 c-33 -16 -81 -41 -107
-55 -40 -21 -62 -25 -128 -25 -68 0 -90 5 -150 32 -38 17 -85 37 -102 45 l-33
13 0 171 0 171 40 42 c22 23 55 70 72 104 29 55 32 71 33 147 0 74 -4 93 -29
143 -52 107 -183 172 -346 172 -77 0 -101 -6 -253 -58 -191 -65 -212 -74 -248
-114 -39 -41 -52 -94 -46 -182 6 -101 37 -162 105 -210 l32 -22 0 -203 0 -203
-40 -7 c-21 -3 -79 -20 -129 -36 -104 -35 -156 -37 -243 -10 -34 11 -89 23
-120 27 l-58 6 0 648 0 649 295 0 295 0 0 -112 0 -111 28 39 c83 114 240 200
412 225 76 10 210 1 299 -22z m-3722 -171 c-4 -83 -7 -384 -7 -670 l0 -518
-37 1 c-21 0 -69 -6 -108 -15 -104 -23 -196 -20 -299 10 -49 14 -100 23 -113
20 l-23 -6 0 417 c0 230 -3 529 -7 666 l-6 247 303 0 303 0 -6 -152z"/>
<path d="M3060 10020 c-91 -12 -165 -38 -232 -83 -132 -88 -200 -257 -129
-324 14 -14 20 -39 26 -103 8 -106 30 -185 61 -227 13 -17 24 -36 24 -41 0
-11 32 -41 63 -58 93 -52 111 -57 230 -62 105 -4 123 -2 175 19 79 32 171 121
207 200 20 45 28 84 34 154 5 79 10 98 30 119 74 79 -24 273 -178 351 -91 45
-213 67 -311 55z"/>
<path d="M3010 8764 c-91 -30 -127 -73 -183 -219 -19 -49 -96 -218 -170 -375
-74 -157 -137 -300 -141 -318 -7 -41 23 -76 60 -69 13 2 24 0 24 -5 0 -13 -71
-181 -82 -193 -28 -31 -9 -32 610 -37 339 -3 620 -4 624 -2 3 2 -11 43 -32 92
-21 48 -41 99 -44 115 -6 24 -4 27 21 27 47 0 56 12 51 66 -5 46 -26 95 -190
444 -59 126 -102 223 -127 290 -34 91 -76 149 -124 170 -34 16 -64 19 -162 19
-66 0 -127 -3 -135 -5z"/>
<path d="M1102 6545 c-171 -38 -297 -148 -333 -288 -13 -54 -7 -89 22 -118 18
-18 37 -116 43 -226 0 -12 3 -20 5 -17 2 2 20 -24 40 -58 39 -66 105 -125 180
-161 64 -30 245 -32 306 -3 155 74 234 194 250 378 4 47 11 78 19 81 7 3 20
21 29 40 29 60 5 183 -48 253 -68 89 -353 156 -513 119z"/>
<path d="M4710 6545 c-100 -17 -138 -34 -181 -82 -48 -53 -93 -171 -94 -245 0
-47 4 -61 26 -85 21 -23 28 -44 37 -118 25 -194 130 -316 315 -365 52 -14 160
-9 224 10 57 17 112 59 164 123 57 71 88 148 100 246 6 56 13 77 28 88 11 7
25 32 31 55 27 100 -79 261 -218 332 -107 54 -266 69 -432 41z"/>
<path d="M7088 9964 c-84 -20 -154 -59 -214 -118 -115 -115 -145 -255 -68
-315 21 -16 27 -34 36 -93 28 -204 163 -335 356 -346 68 -4 93 -1 145 18 147
53 228 156 257 328 9 53 17 75 31 82 56 31 62 129 14 224 -32 63 -121 153
-181 184 -99 50 -256 66 -376 36z"/>
<path d="M7166 6639 c-77 -18 -217 -101 -286 -169 -80 -78 -114 -143 -115
-218 0 -48 3 -57 33 -83 29 -26 35 -40 43 -97 22 -164 91 -263 224 -322 108
-49 208 -48 321 4 114 52 191 164 214 310 8 49 17 74 31 84 83 58 57 196 -60
313 -73 73 -175 137 -268 168 -68 23 -78 24 -137 10z"/>
<path d="M3420 3217 c-127 -43 -195 -99 -240 -198 -31 -70 -21 -159 19 -159 6
0 11 -4 11 -10 0 -5 9 -10 20 -10 18 0 20 -7 20 -58 0 -118 47 -232 122 -297
57 -48 126 -70 223 -70 67 0 89 5 137 28 113 55 176 162 185 315 5 76 8 83 30
88 31 8 63 50 63 84 0 90 -87 208 -193 260 -115 56 -280 67 -397 27z"/>
<path d="M7400 3323 c-147 -25 -280 -116 -280 -194 0 -18 40 -49 64 -49 24 0
24 0 10 -47 -27 -91 -53 -83 281 -83 334 0 308 -8 281 83 l-14 47 33 0 c68 0
84 51 35 118 -64 88 -264 149 -410 125z"/>
<path d="M9307 3265 c-146 -30 -243 -100 -299 -213 -27 -54 -32 -76 -32 -133
0 -62 3 -71 29 -99 17 -17 49 -36 72 -43 40 -10 41 -12 53 -71 24 -126 106
-232 218 -284 49 -23 70 -27 152 -27 82 0 103 4 151 26 72 34 128 85 162 147
29 54 57 150 57 197 0 29 4 33 47 46 61 18 88 60 88 139 0 66 -26 122 -76 162
-21 17 -107 53 -218 93 -208 74 -283 86 -404 60z"/>
<path d="M12510 3221 c-117 -38 -195 -99 -239 -186 -47 -94 -37 -158 28 -185
29 -12 31 -15 31 -69 0 -164 86 -303 214 -348 76 -26 196 -23 264 6 110 49
180 166 189 319 6 78 7 82 30 82 13 0 35 12 50 26 22 22 25 32 21 73 -12 127
-130 247 -283 287 -73 20 -238 17 -305 -5z"/>
</g>
</svg>
